<svg xmlns="http://www.w3.org/2000/svg" viewBox="0 0 800 800" preserveAspectRatio="xMidYMid slice">
  <defs>
    <pattern id="topo" x="0" y="0" width="800" height="800" patternUnits="userSpaceOnUse">
      <g fill="none" stroke="currentColor" stroke-width="1.2" stroke-linecap="round">
        <path d="M-50,180 C120,140 220,260 380,220 C520,185 600,260 760,220 C840,200 900,240 950,210"></path>
        <path d="M-50,240 C100,210 230,300 400,270 C540,245 620,310 780,275 C860,260 900,290 950,275"></path>
        <path d="M-50,310 C140,280 230,360 380,330 C520,305 640,360 770,330 C840,315 900,335 950,330"></path>
        <path d="M-50,380 C120,360 240,420 400,390 C540,365 620,420 780,395 C860,385 900,400 950,400"></path>
        <path d="M-50,450 C140,440 250,490 380,470 C520,455 640,490 760,470 C840,460 900,470 950,470"></path>
        <path d="M-50,520 C150,510 240,550 400,540 C540,530 640,560 780,545 C860,540 900,545 950,545"></path>
        <path d="M-50,600 C140,590 250,620 380,610 C520,605 640,625 770,615 C840,610 900,615 950,615"></path>
        <path d="M-50,680 C160,675 250,700 400,690 C540,685 640,705 780,695 C860,690 900,695 950,695"></path>
        
        <path d="M180,400 C220,360 280,360 320,395 C300,440 250,455 210,440 C180,430 170,415 180,400 Z"></path>
        <path d="M205,395 C235,365 280,375 295,395 C285,420 250,432 220,425 C200,420 195,405 205,395 Z"></path>
        <path d="M225,398 C245,378 275,386 285,400 C275,415 250,420 235,415 C225,410 220,405 225,398 Z"></path>
        <path d="M560,500 C600,470 670,470 700,510 C685,550 620,565 580,545 C555,530 545,515 560,500 Z"></path>
        <path d="M580,505 C615,485 660,490 680,512 C665,540 620,548 595,535 C575,525 570,515 580,505 Z"></path>
      </g>
    </pattern>
  </defs>
  <rect width="800" height="800" fill="url(#topo)"></rect>
</svg>